<svg width="375" height="630" viewBox="0 0 375 630" fill="none" xmlns="http://www.w3.org/2000/svg">
<g clip-path="url(#clip0_307_3254)">
<rect width="1493.33" height="630" transform="translate(-559)" fill="#121214"/>
<g opacity="0.1">
<path fill-rule="evenodd" clip-rule="evenodd" d="M65.909 170.639C65.909 170.639 89.2929 185.928 95.8303 191.53C102.368 197.132 123.84 199.625 128.047 201.182C132.254 202.739 142.335 216.749 142.335 216.749C142.335 216.749 148.144 227.109 149.535 234.536C150.93 241.963 169.577 250.371 169.577 250.371L187.268 257.844C187.268 257.844 159.854 227.023 156.795 219.555C153.731 212.082 157.483 205.237 149.54 201.187C141.592 197.142 122.273 190.605 120.261 183.132C118.248 175.659 86.8054 149.51 76.8451 144.843C66.8848 140.171 37.3428 128.967 37.3428 128.967C37.3428 128.967 56.5353 160.375 65.9141 170.649L65.909 170.639Z" fill="#633BBC"/>
<path fill-rule="evenodd" clip-rule="evenodd" d="M-60.3239 -15.7598C-60.3239 -15.7598 -16.6908 16.8006 3.4269 25.3806C3.4269 25.3806 28.5905 23.4998 31.9931 25.3806C35.3958 27.2614 50.3413 36.5341 51.8884 40.1441C53.4355 43.749 54.4669 51.4796 57.5561 55.0895C60.6504 58.6944 88.4734 72.0928 98.2668 73.6399C108.06 75.187 131.763 79.8233 136.399 82.9176C141.035 86.0119 139.493 93.2217 142.067 96.8317C144.645 100.437 160.101 106.625 166.285 110.746C172.468 114.866 191.787 113.84 197.586 116.413C203.386 118.992 215.753 126.718 215.753 126.718L220.384 130.838C220.384 130.838 217.8 139.6 220.384 142.174C222.967 144.752 233.787 146.81 233.787 146.81C233.787 146.81 225.541 138.564 225.541 133.412C225.541 128.26 220.384 124.134 220.384 124.134C220.384 124.134 194.624 112.283 191.014 109.188C187.409 106.094 154.939 79.2975 152.366 74.6612C149.787 70.0249 144.12 57.1423 141.03 53.5323C137.936 49.9274 108.566 42.1968 101.351 39.1025C94.1362 36.0083 84.8534 26.7356 80.4749 19.005C76.1015 11.2745 67.8551 -10.1224 65.2766 -12.9437C62.6981 -15.7649 57.0303 -15.7649 57.0303 -15.7649H-60.334L-60.3239 -15.7598Z" fill="#633BBC"/>
<path fill-rule="evenodd" clip-rule="evenodd" d="M374.896 221.543C374.896 221.543 398.28 236.832 404.817 242.434C411.354 248.036 432.827 250.529 437.034 252.086C441.24 253.643 451.322 267.654 451.322 267.654C451.322 267.654 457.131 278.013 458.522 285.44C459.917 292.868 478.563 301.276 478.563 301.276L496.254 308.748C496.254 308.748 468.841 277.927 465.782 270.46C462.718 262.987 466.47 256.141 458.527 252.091C450.579 248.046 431.26 241.509 429.248 234.036C427.235 226.564 395.792 200.414 385.832 195.747C375.872 191.076 346.33 179.872 346.33 179.872C346.33 179.872 365.522 211.279 374.901 221.553L374.896 221.543Z" fill="#633BBC"/>
<path fill-rule="evenodd" clip-rule="evenodd" d="M380.835 50.4431C380.835 50.4431 411.904 78.2712 430.368 89.091C448.833 99.9108 458.955 95.2745 458.955 95.2745C458.955 95.2745 475.26 100.032 485.236 107.702C495.211 115.372 493.664 129.286 499.848 137.017C506.031 144.747 531.538 139.337 531.538 139.337L569.762 181.56L595.026 208.129C595.026 208.129 567.754 172.57 563.174 164.845C558.593 157.114 526.902 112.283 520.714 104.552C514.53 96.8216 506.026 98.3687 499.843 87.5489C493.659 76.7291 486.702 64.3572 476.651 55.0845C466.605 45.8068 445.754 31.8928 434.535 25.7093C423.315 19.5259 405.538 13.3424 405.538 13.3424L374.621 6.38538L344.478 -10.092H206.116C206.116 -10.092 273.982 36.5341 304.823 48.1275C316.493 52.511 380.83 50.4482 380.83 50.4482L380.835 50.4431Z" fill="#633BBC"/>
<path fill-rule="evenodd" clip-rule="evenodd" d="M-576.501 136.072C-576.501 136.072 -522.397 175.211 -511.537 184.625C-500.677 194.039 -471.504 193.326 -461.847 203.206C-452.19 213.085 -434.874 217.413 -422.749 230.836C-410.625 244.255 -370.47 254.144 -356.784 269.98C-343.092 285.815 -319.81 292.302 -308.075 299.451C-296.34 306.6 -259.972 323.917 -259.972 323.917C-259.972 323.917 -304.369 303.137 -311.609 282.357C-318.849 261.577 -314.738 235.68 -314.738 235.68C-314.738 235.68 -305.436 233.642 -314.738 216.437C-324.041 199.232 -316.27 188.265 -327.95 173.835C-339.629 159.406 -345.216 133.428 -337.227 121.309C-329.239 109.19 -310.628 73.6057 -314.738 52.4364C-318.849 31.2619 -282.719 15.6794 -282.719 15.6794C-282.719 15.6794 -228.084 20.877 -221.516 29.5328C-214.949 38.1937 -166.866 52.4364 -166.866 52.4364C-166.866 52.4364 -128.446 54.5599 -123.208 52.4364C-117.975 50.3129 -101.508 64.1662 -88.0943 76.2854C-74.6808 88.4096 -72.0668 81.0229 -53.4406 93.9965C-34.8094 106.97 -31.2499 126.557 -20.5616 136.077C-20.5616 136.077 -32.5241 115.171 -36.2858 93.9965C-36.2858 93.9965 -17.1489 96.1048 -3.29553 99.5682C10.5579 103.031 17.1964 102.263 26.7673 109.574C36.3383 116.885 46.8749 121.501 46.8749 121.501C46.8749 121.501 30.6655 106.879 26.7673 98.7946C22.8691 90.7152 19.7901 82.6306 14.7897 79.5516C9.78937 76.4725 -46.8123 62.1944 -61.3128 55.4801C-75.8133 48.7657 -88.0943 26.6408 -88.0943 26.6408C-88.0943 26.6408 -121.282 -19.9854 -142.219 -20.6932C-163.155 -21.4011 -199.857 -31.4776 -213.22 -40.8969C-226.582 -50.3162 -270.681 -103.834 -270.681 -103.834H-569.14L-576.501 136.072Z" fill="#633BBC"/>
<path fill-rule="evenodd" clip-rule="evenodd" d="M-97.7477 229.773C-97.7477 229.773 -74.3639 245.062 -67.8265 250.664C-61.2891 256.266 -39.8163 258.759 -35.6098 260.316C-31.4032 261.873 -21.3216 275.883 -21.3216 275.883C-21.3216 275.883 -15.5123 286.243 -14.1219 293.67C-12.7264 301.098 5.92 309.506 5.92 309.506L23.6109 316.978C23.6109 316.978 -3.80265 286.157 -6.86152 278.689C-9.92544 271.217 -6.17389 264.371 -14.1168 260.321C-22.0648 256.276 -41.3837 249.739 -43.396 242.266C-45.4083 234.793 -76.8514 208.644 -86.8116 203.977C-96.7719 199.306 -126.314 188.102 -126.314 188.102C-126.314 188.102 -107.121 219.509 -97.7427 229.783L-97.7477 229.773Z" fill="#633BBC"/>
</g>
<g opacity="0.64">
</g>
<g opacity="0.64">
<path d="M115.2 117.805C115.481 118.104 115.956 118.174 116.254 117.928C116.553 117.699 116.571 117.26 116.272 116.943C115.991 116.644 115.516 116.574 115.218 116.82C114.919 117.049 114.901 117.488 115.2 117.805Z" fill="white"/>
<path d="M69.9898 110.156C70.1831 110.367 70.4993 110.402 70.6926 110.244C70.8859 110.086 70.9035 109.787 70.6926 109.594C70.4993 109.383 70.1831 109.347 69.9898 109.506C69.7965 109.664 69.7789 109.963 69.9898 110.156Z" fill="white"/>
<path d="M114.101 167.699C113.714 167.769 113.486 168.138 113.609 168.525C113.732 168.912 114.153 169.14 114.54 169.07C114.927 169 115.155 168.63 115.032 168.244C114.909 167.857 114.487 167.628 114.101 167.699Z" fill="white"/>
<path d="M20.1649 162.883C19.9013 162.936 19.7607 163.182 19.8486 163.428C19.9365 163.674 20.2177 163.85 20.4637 163.797C20.7273 163.744 20.8679 163.498 20.78 163.252C20.6921 163.006 20.4109 162.83 20.1649 162.883Z" fill="white"/>
<path d="M176.594 115.169C176.26 115.591 176.365 116.223 176.857 116.593C177.349 116.962 178.017 116.927 178.351 116.505C178.685 116.083 178.58 115.45 178.088 115.081C177.596 114.712 176.928 114.747 176.594 115.169Z" fill="white"/>
</g>
<g opacity="0.64">
<path d="M27.941 48.8974C27.8882 49.249 28.0991 49.5654 28.3979 49.6358C28.6966 49.6885 28.9953 49.46 29.0481 49.126C29.1008 48.7743 28.8899 48.4579 28.5911 48.3875C28.2924 48.3172 27.9937 48.5634 27.941 48.8974Z" fill="white"/>
<path d="M11.4983 44.645C11.4631 44.8735 11.6037 45.0845 11.797 45.1372C12.0079 45.1724 12.2012 45.0142 12.2363 44.7857C12.2714 44.5571 12.1309 44.3461 11.9376 44.2934C11.7267 44.2582 11.5334 44.4164 11.4983 44.645Z" fill="white"/>
<path d="M72.493 99.3728C72.0537 99.3728 71.7022 99.7947 71.7022 100.305C71.7022 100.814 72.0887 101.201 72.5281 101.184C72.9674 101.184 73.3188 100.762 73.3188 100.252C73.3188 99.742 72.9323 99.3552 72.493 99.3728Z" fill="white"/>
</g>
<g opacity="0.64">
<path d="M4.98382 284.971C4.84324 284.215 4.31611 283.705 3.82407 283.863C3.33203 284.004 3.03332 284.76 3.19147 285.516C3.34963 286.272 3.85919 286.781 4.35123 286.623C4.84327 286.465 5.14198 285.727 4.98382 284.971Z" fill="white"/>
<path d="M32.5239 279.185C32.436 278.675 32.0846 278.341 31.7507 278.447C31.4168 278.552 31.2235 279.045 31.329 279.555C31.4168 280.064 31.7682 280.398 32.1021 280.293C32.4359 280.187 32.6293 279.695 32.5239 279.185Z" fill="white"/>
<path d="M95.6286 241.162C96.5424 241.531 97.4211 240.722 97.5792 239.369C97.7374 238.015 97.1223 236.626 96.2085 236.257C95.2947 235.888 94.4161 236.696 94.2579 238.05C94.0998 239.404 94.7148 240.793 95.6286 241.162Z" fill="white"/>
<path d="M84.1194 313.485C84.7345 313.731 85.3144 313.186 85.4198 312.29C85.5253 311.393 85.121 310.461 84.506 310.215C83.8909 309.969 83.3111 310.514 83.2056 311.411C83.1002 312.307 83.5044 313.239 84.1194 313.485Z" fill="white"/>
</g>
<g opacity="0.64">
<path d="M301.821 176.151C302.12 175.957 302.225 175.588 302.067 175.325C301.909 175.061 301.54 174.99 301.241 175.184C300.942 175.377 300.837 175.746 300.995 176.01C301.153 176.274 301.522 176.344 301.821 176.151Z" fill="white"/>
<path d="M309.533 191.218C309.726 191.095 309.797 190.849 309.691 190.673C309.586 190.498 309.34 190.462 309.147 190.585C308.953 190.709 308.883 190.955 308.988 191.13C309.094 191.306 309.34 191.341 309.533 191.218Z" fill="white"/>
<path d="M337.653 222.264C337.67 222.844 338.18 223.231 338.777 223.143C339.375 223.055 339.849 222.493 339.814 221.912C339.797 221.332 339.287 220.946 338.689 221.033C338.092 221.121 337.618 221.684 337.653 222.264Z" fill="white"/>
<path d="M305 225.676C305 226.063 305.352 226.327 305.756 226.257C306.16 226.186 306.459 225.835 306.459 225.448C306.459 225.061 306.108 224.797 305.703 224.868C305.299 224.938 305 225.29 305 225.676Z" fill="white"/>
<path d="M310.122 109.502C310.42 109.819 310.983 109.819 311.352 109.467C311.721 109.133 311.773 108.588 311.475 108.254C311.176 107.937 310.614 107.937 310.245 108.289C309.876 108.623 309.823 109.168 310.122 109.502Z" fill="white"/>
</g>
<g opacity="0.64">
</g>
<path d="M369.888 69.1725C369.378 68.0298 368.148 67.5727 367.129 68.1528C366.11 68.733 365.705 70.1219 366.215 71.2646C366.725 72.4074 367.955 72.8644 368.974 72.2843C369.993 71.7041 370.397 70.3153 369.888 69.1725Z" fill="white"/>
<path d="M223.225 70.5267C223.946 70.5267 224.508 69.8586 224.508 69.0499C224.508 68.2412 223.91 67.6083 223.207 67.6083C222.487 67.6083 221.925 68.2763 221.925 69.085C221.925 69.8938 222.522 70.5267 223.225 70.5267Z" fill="white"/>
<path d="M361.51 116.395C361.985 116.395 362.371 115.956 362.354 115.411C362.354 114.883 361.95 114.444 361.475 114.461C361.001 114.461 360.614 114.901 360.632 115.446C360.632 115.973 361.036 116.413 361.51 116.395Z" fill="white"/>
<path d="M69.5255 123.602C69.0686 122.582 67.9614 122.178 67.0477 122.688C66.1339 123.197 65.7825 124.446 66.2394 125.465C66.6963 126.485 67.8033 126.889 68.7171 126.38C69.6309 125.87 69.9824 124.621 69.5255 123.602Z" fill="white"/>
<g opacity="0.4" filter="url(#filter0_f_307_3254)">
<ellipse cx="173.375" cy="14" rx="688.625" ry="347.083" fill="#633BBC"/>
</g>
<rect opacity="0.8" width="1493.33" height="756" transform="matrix(1 0 0 -1 -559 756)" fill="url(#paint0_linear_307_3254)"/>
</g>
<defs>
<filter id="filter0_f_307_3254" x="-865.25" y="-683.083" width="2077.25" height="1394.17" filterUnits="userSpaceOnUse" color-interpolation-filters="sRGB">
<feFlood flood-opacity="0" result="BackgroundImageFix"/>
<feBlend mode="normal" in="SourceGraphic" in2="BackgroundImageFix" result="shape"/>
<feGaussianBlur stdDeviation="175" result="effect1_foregroundBlur_307_3254"/>
</filter>
<linearGradient id="paint0_linear_307_3254" x1="746.667" y1="0" x2="746.667" y2="756" gradientUnits="userSpaceOnUse">
<stop stop-color="#121214"/>
<stop offset="1" stop-color="#121214" stop-opacity="0"/>
</linearGradient>
<clipPath id="clip0_307_3254">
<rect width="1493.33" height="630" fill="white" transform="translate(-559)"/>
</clipPath>
</defs>
</svg>
